<svg xmlns="http://www.w3.org/2000/svg" viewBox="0 0 32 32" width="32" height="32">
  <defs>
    <linearGradient id="bf-g" x1="6" y1="10" x2="26" y2="24" gradientUnits="userSpaceOnUse">
      <stop offset="0%" stop-color="#3b9eff"/>
      <stop offset="100%" stop-color="#00d4aa"/>
    </linearGradient>
  </defs>
  <circle cx="16" cy="16" r="15" fill="#0a1628"/>
  <circle cx="16" cy="16" r="14.2" fill="none" stroke="url(#bf-g)" stroke-width="1.1"/>
  <rect x="5.5" y="11.2" width="21" height="1.7" rx="0.85" fill="#e8f4ff"/>
  <path d="M8 12.9 C8 19.2 24 19.2 24 12.9" fill="none" stroke="url(#bf-g)" stroke-width="1.7" stroke-linecap="round"/>
  <rect x="6.6" y="12.9" width="1.4" height="5" rx="0.7" fill="#8ec9ff"/>
  <rect x="24" y="12.9" width="1.4" height="5" rx="0.7" fill="#8ec9ff"/>
  <path d="M6 21.2 C9 19.8 10.5 22.4 13.5 20.9 C16.5 19.4 18 22.1 21 20.7 C22.8 19.8 24.2 20.6 26 21.3"
        fill="none" stroke="url(#bf-g)" stroke-width="1.25" stroke-linecap="round"/>
  <path d="M7.5 24.2 C10 23.2 11.5 25.2 14.5 24 C17.5 22.8 19 25 22 23.8 C23.5 23.2 24.5 23.7 25.5 24.2"
        fill="none" stroke="url(#bf-g)" stroke-width="0.75" stroke-linecap="round" opacity="0.4"/>
</svg>
